<mxfile host="app.diagrams.net" agent="Mozilla/5.0 (Windows NT 10.0; Win64; x64) AppleWebKit/537.36 (KHTML, like Gecko) Chrome/131.0.0.0 Safari/537.36" version="26.0.5">
  <diagram id="R2lEEEUBdFMjLlhIrx00" name="Page-1">
    <mxGraphModel dx="1400" dy="1971" grid="1" gridSize="10" guides="1" tooltips="1" connect="1" arrows="1" fold="1" page="1" pageScale="1" pageWidth="850" pageHeight="1100" math="0" shadow="0" extFonts="Permanent Marker^https://fonts.googleapis.com/css?family=Permanent+Marker">
      <root>
        <mxCell id="0" />
        <mxCell id="1" parent="0" />
        <mxCell id="zQwSwGuKmndq3hkdYxnN-1" value="Tara" style="rounded=1;whiteSpace=wrap;html=1;" vertex="1" parent="1">
          <mxGeometry x="50" y="30" width="120" height="60" as="geometry" />
        </mxCell>
        <mxCell id="zQwSwGuKmndq3hkdYxnN-2" value="Judet" style="rounded=1;whiteSpace=wrap;html=1;" vertex="1" parent="1">
          <mxGeometry x="250" y="30" width="120" height="60" as="geometry" />
        </mxCell>
        <mxCell id="zQwSwGuKmndq3hkdYxnN-3" value="UAT" style="rounded=1;whiteSpace=wrap;html=1;" vertex="1" parent="1">
          <mxGeometry x="450" y="30" width="120" height="60" as="geometry" />
        </mxCell>
        <mxCell id="zQwSwGuKmndq3hkdYxnN-4" value="Market" style="rounded=1;whiteSpace=wrap;html=1;" vertex="1" parent="1">
          <mxGeometry x="660" y="50" width="120" height="60" as="geometry" />
        </mxCell>
        <mxCell id="zQwSwGuKmndq3hkdYxnN-5" value="tip_market" style="rounded=1;whiteSpace=wrap;html=1;" vertex="1" parent="1">
          <mxGeometry x="660" y="-90" width="120" height="60" as="geometry" />
        </mxCell>
        <mxCell id="zQwSwGuKmndq3hkdYxnN-6" value="Bon" style="rounded=1;whiteSpace=wrap;html=1;" vertex="1" parent="1">
          <mxGeometry x="660" y="200" width="120" height="60" as="geometry" />
        </mxCell>
        <mxCell id="zQwSwGuKmndq3hkdYxnN-7" value="Client" style="rounded=1;whiteSpace=wrap;html=1;" vertex="1" parent="1">
          <mxGeometry x="250" y="170" width="120" height="60" as="geometry" />
        </mxCell>
        <mxCell id="zQwSwGuKmndq3hkdYxnN-8" value="Persoane" style="rounded=1;whiteSpace=wrap;html=1;" vertex="1" parent="1">
          <mxGeometry x="30" y="170" width="120" height="60" as="geometry" />
        </mxCell>
        <mxCell id="zQwSwGuKmndq3hkdYxnN-9" value="Stoc" style="rounded=1;whiteSpace=wrap;html=1;" vertex="1" parent="1">
          <mxGeometry x="1108" y="180" width="110" height="60" as="geometry" />
        </mxCell>
        <mxCell id="zQwSwGuKmndq3hkdYxnN-10" value="Produse" style="rounded=1;whiteSpace=wrap;html=1;" vertex="1" parent="1">
          <mxGeometry x="1103" y="50" width="120" height="60" as="geometry" />
        </mxCell>
        <mxCell id="zQwSwGuKmndq3hkdYxnN-11" value="tip_produse" style="rounded=1;whiteSpace=wrap;html=1;" vertex="1" parent="1">
          <mxGeometry x="1328" y="50" width="120" height="60" as="geometry" />
        </mxCell>
        <mxCell id="zQwSwGuKmndq3hkdYxnN-12" value="Furnizor" style="rounded=1;whiteSpace=wrap;html=1;" vertex="1" parent="1">
          <mxGeometry x="1108" y="320" width="120" height="60" as="geometry" />
        </mxCell>
        <mxCell id="zQwSwGuKmndq3hkdYxnN-13" value="tip_furnizor" style="rounded=1;whiteSpace=wrap;html=1;" vertex="1" parent="1">
          <mxGeometry x="1328" y="320" width="120" height="60" as="geometry" />
        </mxCell>
        <mxCell id="zQwSwGuKmndq3hkdYxnN-14" value="" style="edgeStyle=entityRelationEdgeStyle;fontSize=12;html=1;endArrow=ERoneToMany;rounded=0;exitX=1;exitY=0.5;exitDx=0;exitDy=0;entryX=0;entryY=0.5;entryDx=0;entryDy=0;" edge="1" parent="1" source="zQwSwGuKmndq3hkdYxnN-1" target="zQwSwGuKmndq3hkdYxnN-2">
          <mxGeometry width="100" height="100" relative="1" as="geometry">
            <mxPoint x="370" y="290" as="sourcePoint" />
            <mxPoint x="470" y="190" as="targetPoint" />
          </mxGeometry>
        </mxCell>
        <mxCell id="zQwSwGuKmndq3hkdYxnN-15" value="" style="edgeStyle=entityRelationEdgeStyle;fontSize=12;html=1;endArrow=ERoneToMany;rounded=0;exitX=1;exitY=0.5;exitDx=0;exitDy=0;entryX=0;entryY=0.5;entryDx=0;entryDy=0;" edge="1" parent="1" source="zQwSwGuKmndq3hkdYxnN-2" target="zQwSwGuKmndq3hkdYxnN-3">
          <mxGeometry width="100" height="100" relative="1" as="geometry">
            <mxPoint x="370" y="290" as="sourcePoint" />
            <mxPoint x="470" y="190" as="targetPoint" />
          </mxGeometry>
        </mxCell>
        <mxCell id="zQwSwGuKmndq3hkdYxnN-16" value="" style="edgeStyle=entityRelationEdgeStyle;fontSize=12;html=1;endArrow=ERoneToMany;rounded=0;entryX=0;entryY=0.5;entryDx=0;entryDy=0;exitX=1;exitY=0.5;exitDx=0;exitDy=0;" edge="1" parent="1" source="zQwSwGuKmndq3hkdYxnN-3" target="zQwSwGuKmndq3hkdYxnN-4">
          <mxGeometry width="100" height="100" relative="1" as="geometry">
            <mxPoint x="430" y="290" as="sourcePoint" />
            <mxPoint x="530" y="190" as="targetPoint" />
          </mxGeometry>
        </mxCell>
        <mxCell id="zQwSwGuKmndq3hkdYxnN-17" value="" style="edgeStyle=orthogonalEdgeStyle;fontSize=12;html=1;endArrow=ERoneToMany;rounded=0;entryX=0.5;entryY=0;entryDx=0;entryDy=0;exitX=0.5;exitY=1;exitDx=0;exitDy=0;curved=1;" edge="1" parent="1" source="zQwSwGuKmndq3hkdYxnN-5" target="zQwSwGuKmndq3hkdYxnN-4">
          <mxGeometry width="100" height="100" relative="1" as="geometry">
            <mxPoint x="430" y="290" as="sourcePoint" />
            <mxPoint x="530" y="190" as="targetPoint" />
          </mxGeometry>
        </mxCell>
        <mxCell id="zQwSwGuKmndq3hkdYxnN-18" value="" style="edgeStyle=entityRelationEdgeStyle;fontSize=12;html=1;endArrow=ERmandOne;startArrow=ERmandOne;rounded=0;entryX=0;entryY=0.5;entryDx=0;entryDy=0;exitX=1;exitY=0.5;exitDx=0;exitDy=0;" edge="1" parent="1" source="zQwSwGuKmndq3hkdYxnN-8" target="zQwSwGuKmndq3hkdYxnN-7">
          <mxGeometry width="100" height="100" relative="1" as="geometry">
            <mxPoint x="430" y="290" as="sourcePoint" />
            <mxPoint x="530" y="190" as="targetPoint" />
          </mxGeometry>
        </mxCell>
        <mxCell id="zQwSwGuKmndq3hkdYxnN-19" value="" style="edgeStyle=orthogonalEdgeStyle;fontSize=12;html=1;endArrow=ERoneToMany;rounded=0;curved=1;exitX=0.25;exitY=1;exitDx=0;exitDy=0;entryX=0.583;entryY=0;entryDx=0;entryDy=0;entryPerimeter=0;" edge="1" parent="1" source="zQwSwGuKmndq3hkdYxnN-29" target="zQwSwGuKmndq3hkdYxnN-33">
          <mxGeometry width="100" height="100" relative="1" as="geometry">
            <mxPoint x="710" y="130" as="sourcePoint" />
            <mxPoint x="730" y="170" as="targetPoint" />
          </mxGeometry>
        </mxCell>
        <mxCell id="zQwSwGuKmndq3hkdYxnN-20" value="Clienti_vanzari" style="rounded=1;whiteSpace=wrap;html=1;" vertex="1" parent="1">
          <mxGeometry x="440" y="270" width="120" height="60" as="geometry" />
        </mxCell>
        <mxCell id="zQwSwGuKmndq3hkdYxnN-22" value="" style="edgeStyle=entityRelationEdgeStyle;fontSize=12;html=1;endArrow=ERoneToMany;rounded=0;exitX=0;exitY=0.5;exitDx=0;exitDy=0;entryX=1;entryY=0.5;entryDx=0;entryDy=0;" edge="1" parent="1" source="zQwSwGuKmndq3hkdYxnN-6" target="zQwSwGuKmndq3hkdYxnN-20">
          <mxGeometry width="100" height="100" relative="1" as="geometry">
            <mxPoint x="430" y="290" as="sourcePoint" />
            <mxPoint x="530" y="190" as="targetPoint" />
          </mxGeometry>
        </mxCell>
        <mxCell id="zQwSwGuKmndq3hkdYxnN-23" value="" style="edgeStyle=entityRelationEdgeStyle;fontSize=12;html=1;endArrow=ERoneToMany;rounded=0;exitX=1;exitY=0.5;exitDx=0;exitDy=0;" edge="1" parent="1" source="zQwSwGuKmndq3hkdYxnN-7" target="zQwSwGuKmndq3hkdYxnN-20">
          <mxGeometry width="100" height="100" relative="1" as="geometry">
            <mxPoint x="430" y="290" as="sourcePoint" />
            <mxPoint x="530" y="190" as="targetPoint" />
          </mxGeometry>
        </mxCell>
        <mxCell id="zQwSwGuKmndq3hkdYxnN-24" value="" style="edgeStyle=orthogonalEdgeStyle;fontSize=12;html=1;endArrow=ERoneToMany;rounded=0;exitX=0.5;exitY=1;exitDx=0;exitDy=0;entryX=0.5;entryY=0;entryDx=0;entryDy=0;curved=1;" edge="1" parent="1" source="zQwSwGuKmndq3hkdYxnN-10" target="zQwSwGuKmndq3hkdYxnN-9">
          <mxGeometry width="100" height="100" relative="1" as="geometry">
            <mxPoint x="1288" y="70" as="sourcePoint" />
            <mxPoint x="1388" y="-30" as="targetPoint" />
          </mxGeometry>
        </mxCell>
        <mxCell id="zQwSwGuKmndq3hkdYxnN-25" value="" style="edgeStyle=entityRelationEdgeStyle;fontSize=12;html=1;endArrow=ERoneToMany;rounded=0;entryX=1;entryY=0.5;entryDx=0;entryDy=0;" edge="1" parent="1" target="zQwSwGuKmndq3hkdYxnN-10">
          <mxGeometry width="100" height="100" relative="1" as="geometry">
            <mxPoint x="1298" y="80" as="sourcePoint" />
            <mxPoint x="1388" y="-30" as="targetPoint" />
            <Array as="points">
              <mxPoint x="1298" y="80" />
            </Array>
          </mxGeometry>
        </mxCell>
        <mxCell id="zQwSwGuKmndq3hkdYxnN-26" value="" style="edgeStyle=entityRelationEdgeStyle;fontSize=12;html=1;endArrow=ERoneToMany;rounded=0;exitX=0;exitY=0.5;exitDx=0;exitDy=0;entryX=1;entryY=0.5;entryDx=0;entryDy=0;" edge="1" parent="1" source="zQwSwGuKmndq3hkdYxnN-13" target="zQwSwGuKmndq3hkdYxnN-12">
          <mxGeometry width="100" height="100" relative="1" as="geometry">
            <mxPoint x="1288" y="70" as="sourcePoint" />
            <mxPoint x="1388" y="-30" as="targetPoint" />
          </mxGeometry>
        </mxCell>
        <mxCell id="zQwSwGuKmndq3hkdYxnN-27" value="" style="edgeStyle=orthogonalEdgeStyle;fontSize=12;html=1;endArrow=ERoneToMany;rounded=0;entryX=0.5;entryY=1;entryDx=0;entryDy=0;exitX=0.433;exitY=-0.023;exitDx=0;exitDy=0;exitPerimeter=0;curved=1;" edge="1" parent="1" source="zQwSwGuKmndq3hkdYxnN-12" target="zQwSwGuKmndq3hkdYxnN-9">
          <mxGeometry width="100" height="100" relative="1" as="geometry">
            <mxPoint x="1288" y="70" as="sourcePoint" />
            <mxPoint x="1388" y="-30" as="targetPoint" />
          </mxGeometry>
        </mxCell>
        <mxCell id="zQwSwGuKmndq3hkdYxnN-29" value="market_produse" style="rounded=1;whiteSpace=wrap;html=1;" vertex="1" parent="1">
          <mxGeometry x="890" y="50" width="120" height="60" as="geometry" />
        </mxCell>
        <mxCell id="zQwSwGuKmndq3hkdYxnN-30" value="" style="edgeStyle=entityRelationEdgeStyle;fontSize=12;html=1;endArrow=ERoneToMany;rounded=0;entryX=0;entryY=0.5;entryDx=0;entryDy=0;exitX=1;exitY=0.5;exitDx=0;exitDy=0;" edge="1" parent="1" source="zQwSwGuKmndq3hkdYxnN-4" target="zQwSwGuKmndq3hkdYxnN-29">
          <mxGeometry width="100" height="100" relative="1" as="geometry">
            <mxPoint x="720" y="230" as="sourcePoint" />
            <mxPoint x="820" y="130" as="targetPoint" />
          </mxGeometry>
        </mxCell>
        <mxCell id="zQwSwGuKmndq3hkdYxnN-31" value="" style="edgeStyle=entityRelationEdgeStyle;fontSize=12;html=1;endArrow=ERoneToMany;rounded=0;entryX=1;entryY=0.5;entryDx=0;entryDy=0;exitX=0;exitY=0.5;exitDx=0;exitDy=0;" edge="1" parent="1" source="zQwSwGuKmndq3hkdYxnN-10" target="zQwSwGuKmndq3hkdYxnN-29">
          <mxGeometry width="100" height="100" relative="1" as="geometry">
            <mxPoint x="720" y="230" as="sourcePoint" />
            <mxPoint x="820" y="130" as="targetPoint" />
          </mxGeometry>
        </mxCell>
        <mxCell id="zQwSwGuKmndq3hkdYxnN-33" value="produse_bon" style="rounded=1;whiteSpace=wrap;html=1;" vertex="1" parent="1">
          <mxGeometry x="850" y="200" width="120" height="60" as="geometry" />
        </mxCell>
        <mxCell id="zQwSwGuKmndq3hkdYxnN-34" value="" style="edgeStyle=entityRelationEdgeStyle;fontSize=12;html=1;endArrow=ERoneToMany;rounded=0;entryX=0;entryY=0.5;entryDx=0;entryDy=0;exitX=1;exitY=0.5;exitDx=0;exitDy=0;" edge="1" parent="1" source="zQwSwGuKmndq3hkdYxnN-6" target="zQwSwGuKmndq3hkdYxnN-33">
          <mxGeometry width="100" height="100" relative="1" as="geometry">
            <mxPoint x="790" y="230" as="sourcePoint" />
            <mxPoint x="820" y="130" as="targetPoint" />
          </mxGeometry>
        </mxCell>
      </root>
    </mxGraphModel>
  </diagram>
</mxfile>
